<?xml version="1.0" standalone="no"?>
<!DOCTYPE svg PUBLIC "-//W3C//DTD SVG 20010904//EN"
 "http://www.w3.org/TR/2001/REC-SVG-20010904/DTD/svg10.dtd">
<svg version="1.0" xmlns="http://www.w3.org/2000/svg"
 width="300.000000pt" height="300.000000pt" viewBox="0 0 300.000000 300.000000"
 preserveAspectRatio="xMidYMid meet">
<metadata>
Created by potrace 1.10, written by Peter Selinger 2001-2011
</metadata>
<g transform="translate(0.000000,300.000000) scale(0.100000,-0.100000)"
fill="#000000" stroke="none">
<path d="M227 2956 c-21 -14 -44 -26 -51 -26 -15 0 -56 -42 -56 -56 0 -6 11
-21 25 -34 14 -13 25 -31 25 -39 0 -22 32 -69 61 -89 17 -12 47 -17 109 -17
91 -2 152 -22 171 -57 5 -10 19 -52 29 -94 11 -41 27 -82 36 -91 22 -23 114
-60 194 -79 36 -9 67 -19 70 -23 3 -4 43 -27 90 -50 47 -24 94 -48 105 -54 11
-6 70 -35 130 -65 61 -30 118 -61 128 -70 28 -25 20 -53 -31 -107 -27 -27 -53
-61 -59 -75 -17 -43 -8 -130 21 -187 l26 -52 -20 -50 c-11 -28 -29 -75 -40
-103 -12 -29 -27 -66 -35 -83 -7 -16 -20 -46 -28 -65 -79 -186 -97 -233 -111
-282 -9 -31 -22 -63 -30 -70 -18 -19 -46 -74 -46 -92 0 -8 -6 -21 -13 -28 -15
-15 -38 -57 -60 -108 -22 -52 -77 -231 -77 -252 0 -10 -3 -18 -7 -18 -5 0 -9
-19 -10 -42 -1 -45 -18 -65 -63 -74 -132 -29 -183 -58 -217 -124 -12 -25 -27
-50 -32 -56 -11 -14 0 -70 20 -102 23 -37 70 -45 213 -39 72 4 185 14 251 23
133 18 189 44 208 95 6 16 15 29 20 29 4 0 6 4 3 9 -18 29 40 194 96 273 11
16 17 28 14 28 -4 0 4 17 17 37 12 21 28 52 36 68 7 17 36 66 66 110 29 44 63
104 75 133 38 87 42 79 60 -123 17 -177 19 -194 30 -216 6 -10 10 -36 9 -56
-1 -21 2 -98 6 -172 7 -110 12 -138 26 -152 16 -16 23 -17 43 -7 20 8 33 7 63
-6 69 -31 77 -34 173 -60 52 -14 118 -26 145 -26 45 -1 52 -4 70 -32 25 -40
36 -43 63 -20 14 13 22 31 22 53 0 19 9 45 20 59 25 32 27 120 4 160 -20 34
-82 74 -144 95 -29 9 -51 24 -58 38 -5 12 -19 76 -31 142 -16 94 -19 152 -16
265 4 164 13 284 25 314 7 19 9 18 28 -13 12 -19 19 -38 16 -43 -3 -4 0 -8 5
-8 6 0 11 -5 11 -11 0 -5 -5 -7 -12 -3 -7 4 -8 3 -4 -5 4 -6 11 -9 16 -6 5 3
21 0 37 -6 15 -6 64 -10 107 -10 65 0 85 4 112 23 36 25 36 26 38 143 1 39 8
104 15 145 9 50 12 111 7 183 -5 90 -11 119 -36 178 -19 42 -33 94 -36 132 -3
34 -17 94 -31 132 -27 76 -28 83 -17 167 3 31 3 65 -1 75 -5 10 -9 22 -9 26
-1 4 -8 12 -16 17 -13 8 -12 13 5 42 16 27 19 52 20 138 0 100 -2 108 -34 173
-19 37 -36 65 -39 63 -2 -3 -13 6 -24 19 -10 13 -48 38 -83 56 -81 40 -158 47
-241 23 -135 -38 -190 -94 -239 -239 -15 -44 -25 -61 -40 -63 -11 -2 -29 -8
-41 -13 -23 -12 -62 -8 -108 10 -16 7 -41 10 -56 7 -15 -2 -40 2 -56 10 -38
17 -150 54 -166 54 -7 0 -26 7 -42 15 -16 8 -58 22 -94 30 -98 23 -162 69
-164 116 0 13 -5 36 -10 50 -11 30 -29 38 -203 88 -147 43 -155 46 -196 84
-30 28 -45 34 -90 36 -44 2 -61 -2 -92 -23z m139 -22 c18 -9 36 -24 39 -35 6
-19 91 -49 267 -93 108 -28 121 -38 113 -86 -6 -35 -3 -40 44 -83 37 -33 65
-48 103 -57 69 -16 314 -98 350 -116 21 -11 33 -12 48 -4 15 8 34 4 84 -16
l65 -26 27 21 c20 16 35 20 59 15 32 -6 32 -5 39 43 7 57 42 136 81 181 69 83
230 117 345 73 112 -42 183 -149 184 -276 1 -96 -10 -138 -44 -175 -17 -18
-30 -33 -30 -34 0 -1 10 -2 21 -3 12 -1 30 -10 41 -20 18 -16 19 -25 13 -73
-12 -86 -9 -121 14 -183 12 -31 24 -85 28 -120 3 -34 20 -96 36 -137 27 -66
31 -90 35 -196 2 -71 -1 -152 -8 -195 -7 -41 -13 -108 -14 -149 -1 -69 -3 -75
-26 -87 -32 -16 -158 -16 -190 0 -14 7 -26 23 -28 36 -2 12 -12 31 -23 42 -26
26 -24 48 6 89 14 19 23 40 21 47 -3 6 0 41 6 76 11 66 3 197 -11 197 -5 0
-18 -61 -30 -137 -21 -135 -31 -163 -57 -163 -8 0 -14 -3 -14 -7 -1 -5 -9 -96
-18 -203 -9 -107 -14 -215 -11 -240 3 -25 2 -60 -3 -79 -6 -19 -8 -46 -5 -60
33 -190 50 -270 62 -288 8 -11 31 -27 52 -33 73 -24 132 -60 148 -90 24 -46
19 -97 -11 -127 -21 -21 -25 -33 -22 -71 2 -29 -1 -47 -9 -49 -9 -3 -13 10
-13 46 0 56 1 55 -53 40 -53 -14 -165 8 -310 64 -105 40 -117 42 -117 26 0
-11 -6 -19 -13 -19 -10 0 -13 22 -13 87 0 49 -4 122 -8 164 -6 52 -5 78 2 83
7 4 5 17 -8 39 -14 24 -22 74 -34 212 -21 232 -21 294 -1 301 9 4 38 -3 66
-15 28 -12 72 -25 98 -28 47 -5 115 9 126 27 3 5 -11 2 -32 -6 -50 -21 -125
-12 -208 25 -48 22 -64 35 -67 52 -4 20 -6 18 -16 -16 -21 -70 -138 -301 -174
-341 -19 -22 -41 -55 -48 -74 -8 -19 -48 -98 -91 -175 -62 -113 -77 -151 -83
-200 -11 -90 -24 -123 -56 -140 -46 -24 -223 -47 -394 -51 -87 -3 -162 -7
-166 -9 -13 -8 -40 42 -40 73 0 29 43 105 76 133 27 23 66 34 166 50 68 10 85
16 77 26 -31 36 98 445 155 492 9 8 16 23 16 36 0 12 13 41 29 66 16 24 36 70
45 102 10 32 54 145 100 250 45 106 91 216 101 245 11 29 27 60 36 68 16 15
15 19 -16 60 -39 51 -60 114 -50 153 11 45 55 102 91 117 31 13 34 18 34 55 0
22 -5 49 -10 60 -6 11 -113 71 -252 140 -133 67 -253 128 -267 137 -13 9 -35
15 -48 14 -12 -2 -51 9 -85 23 -35 15 -74 31 -87 36 -19 8 -22 15 -18 37 3 15
-1 43 -10 62 -8 19 -18 52 -21 74 -7 36 -10 39 -72 63 -48 18 -87 25 -147 26
-71 2 -85 5 -107 26 -30 28 -32 39 -10 48 8 3 25 -4 37 -15 32 -30 71 -33 75
-5 3 18 -3 22 -40 28 -67 11 -139 45 -136 64 2 9 12 15 23 14 23 -2 112 -30
137 -44 25 -13 28 -12 28 10 0 11 5 23 11 27 8 4 7 9 -2 15 -22 14 -62 10 -87
-7 -23 -16 -42 -12 -42 11 0 14 62 44 93 44 11 1 34 -6 53 -15z"/>
<path d="M370 2862 c0 -16 10 -20 127 -53 150 -41 223 -69 223 -85 0 -24 -50
-15 -200 35 -80 27 -147 48 -149 46 -11 -12 24 -29 140 -67 104 -33 133 -47
139 -64 11 -28 30 -40 30 -20 0 20 42 31 67 18 16 -9 18 -6 15 39 -4 44 -7 50
-30 55 -33 7 -320 90 -344 99 -10 4 -18 3 -18 -3z"/>
<path d="M1816 2709 c-65 -22 -108 -47 -101 -59 2 -4 35 -5 73 -2 96 6 165
-15 217 -68 37 -38 40 -45 40 -95 0 -30 2 -55 5 -55 3 1 16 7 30 14 29 17 57
6 70 -27 7 -17 9 -9 9 34 2 125 -56 221 -155 258 -68 26 -113 26 -188 0z m167
-30 c22 -6 55 -27 76 -49 52 -54 78 -140 41 -140 -5 0 -14 16 -20 36 -18 52
-72 108 -130 133 -28 12 -50 24 -50 26 0 8 43 5 83 -6z"/>
<path d="M2045 2718 c51 -33 106 -103 121 -156 20 -67 15 -173 -9 -221 -20
-41 -15 -53 8 -18 38 58 38 203 0 279 -23 44 -73 96 -110 114 -16 8 -21 9 -10
2z"/>
<path d="M705 2652 c-3 -3 -5 -9 -5 -14 0 -11 47 -10 54 1 6 9 -40 22 -49 13z"/>
<path d="M1683 2638 c-30 -37 -78 -204 -62 -214 5 -3 18 -23 29 -44 42 -83
167 -117 241 -67 44 30 80 96 82 151 2 36 -3 48 -23 65 -36 29 -103 49 -193
57 -79 7 -104 18 -68 32 13 5 17 12 12 20 -6 11 -10 11 -18 0z m187 -106 c14
-5 30 -10 35 -11 35 -7 39 -93 6 -140 -25 -35 -92 -64 -129 -55 -69 16 -125
88 -121 152 5 71 11 75 103 69 44 -3 92 -9 106 -15z"/>
<path d="M1860 2616 c96 -20 146 -63 161 -136 l7 -35 1 39 c2 71 -100 148
-194 145 -21 0 -14 -4 25 -13z"/>
<path d="M777 2614 c-3 -4 5 -15 18 -26 27 -21 25 -38 -5 -38 -13 0 -17 -5
-14 -15 4 -8 3 -26 0 -40 -5 -20 -13 -25 -38 -25 -23 0 -29 -3 -21 -11 6 -6
25 -9 43 -7 29 3 34 8 45 43 6 22 18 50 25 62 12 19 12 24 -4 42 -19 21 -37
26 -49 15z"/>
<path d="M720 2549 c0 -29 3 -49 6 -46 12 12 15 85 4 92 -6 4 -10 -12 -10 -46z"/>
<path d="M856 2528 c-27 -37 -21 -81 13 -101 l30 -18 6 38 c4 21 15 50 25 64
19 27 19 27 -3 33 -39 10 -56 7 -71 -16z"/>
<path d="M681 2523 c-11 -12 -10 -16 5 -28 23 -16 31 -11 15 9 -9 11 -9 15 1
18 7 3 8 7 3 10 -6 3 -16 -1 -24 -9z"/>
<path d="M972 2502 c-7 -15 -16 -50 -19 -79 l-6 -52 194 -98 c107 -54 198
-100 204 -102 5 -2 -16 25 -48 60 -133 147 -171 200 -171 235 0 20 -4 30 -9
25 -5 -5 -26 -2 -50 9 -75 32 -81 32 -95 2z m106 -50 c12 -8 22 -19 22 -24 0
-6 16 -33 36 -60 19 -28 33 -52 30 -56 -7 -6 -84 26 -107 45 -8 7 -21 13 -29
13 -32 0 -49 54 -29 91 11 22 34 19 77 -9z"/>
<path d="M1998 2467 c-5 -10 -8 -27 -8 -38 0 -32 -37 -95 -72 -123 -18 -14
-27 -26 -19 -26 7 0 34 20 59 45 47 47 71 55 92 30 24 -29 70 -11 70 26 0 23
-24 31 -57 18 -39 -15 -51 -5 -55 43 -2 31 -5 38 -10 25z"/>
<path d="M1180 2454 c0 -14 28 -55 84 -123 139 -169 216 -266 216 -273 0 -19
-24 -16 -54 7 -30 22 -34 24 -40 9 -3 -9 -1 -31 5 -49 10 -27 9 -39 -4 -68
-10 -19 -17 -40 -17 -46 0 -6 -4 -11 -10 -11 -5 0 -10 -13 -10 -29 0 -25 4
-29 36 -34 20 -3 42 -12 50 -18 9 -7 25 -14 38 -15 21 -2 26 9 66 149 50 174
69 202 123 192 33 -7 34 -6 29 27 -9 62 -72 121 -187 177 -57 28 -106 51 -109
51 -3 0 -6 -7 -6 -15 0 -19 -34 -20 -50 -1 -6 8 -28 20 -48 27 -20 6 -51 20
-68 30 -32 20 -44 23 -44 13z m155 -96 c5 4 5 1 1 -5 -5 -10 7 -12 51 -11 51
1 68 -4 128 -37 68 -37 124 -88 125 -112 0 -6 -10 -15 -22 -19 -33 -9 -52 -33
-71 -84 -32 -92 -37 -106 -53 -165 -10 -33 -20 -64 -24 -68 -4 -5 -24 -1 -45
7 -36 15 -37 17 -23 38 8 13 20 43 27 68 9 34 18 46 33 47 27 2 49 33 41 58
-6 20 -40 69 -80 115 -12 14 -22 28 -22 33 -1 4 -9 15 -18 25 -34 35 -78 87
-78 92 0 3 -4 11 -9 18 -7 11 -4 12 11 3 11 -6 24 -7 28 -3z"/>
<path d="M1512 2418 c-9 -9 -3 -15 26 -28 20 -9 48 -29 62 -44 14 -15 33 -32
44 -37 15 -9 14 -4 -7 22 -13 19 -32 49 -41 67 -13 24 -23 32 -44 32 -16 0
-33 -5 -40 -12z"/>
<path d="M2030 2332 c0 -19 30 -34 55 -28 33 8 33 25 0 18 -14 -2 -32 1 -40 8
-8 7 -15 8 -15 2z"/>
<path d="M1970 2288 c-23 -27 -53 -46 -90 -59 l-55 -19 50 4 c29 2 64 -2 83
-9 30 -13 34 -12 59 11 14 13 41 34 60 45 18 11 33 26 33 32 0 8 -4 7 -12 -1
-19 -19 -55 -14 -75 12 l-19 23 -34 -39z"/>
<path d="M1683 2242 c17 -18 27 -39 27 -58 0 -17 7 -39 15 -50 18 -24 20 -4 3
43 -9 25 -9 36 -1 44 9 9 3 16 -25 30 -48 25 -51 24 -19 -9z"/>
<path d="M1753 2248 c7 -4 35 -8 62 -8 28 0 55 4 62 8 6 4 -22 7 -62 7 -40 0
-68 -3 -62 -7z"/>
<path d="M2180 2215 c8 -21 8 -42 -1 -77 -12 -54 -6 -105 16 -134 12 -16 12
-12 -1 21 -14 34 -14 49 -4 113 12 66 11 75 -4 90 -16 16 -17 15 -6 -13z"/>
<path d="M2070 2205 c-19 -14 -35 -29 -34 -33 0 -4 4 -36 9 -71 7 -55 12 -66
36 -80 16 -9 31 -21 33 -27 2 -6 -11 -56 -30 -110 -39 -114 -42 -146 -14 -174
21 -21 66 -25 147 -12 l43 7 -20 33 -20 32 -41 -20 c-38 -20 -69 -21 -69 -3 0
4 20 21 44 36 43 27 66 65 66 108 0 9 -19 56 -41 103 -37 77 -40 89 -30 115 7
15 11 48 9 72 -3 39 -6 44 -28 46 -14 1 -41 -9 -60 -22z m53 -60 c-1 -16 -5
-36 -9 -44 -4 -9 -6 -25 -5 -35 3 -18 1 -18 -13 -3 -17 17 -24 85 -12 106 15
23 41 7 39 -24z m47 -214 c23 -44 5 -98 -42 -126 l-31 -18 6 38 c7 45 39 125
49 125 4 0 12 -9 18 -19z"/>
<path d="M1745 2194 c4 -10 10 -31 13 -46 3 -18 11 -28 21 -28 19 0 197 -62
231 -80 21 -11 21 -10 15 37 -13 94 -21 101 -135 114 -36 4 -85 10 -109 15
-41 7 -44 6 -36 -12z m205 -49 c17 -9 30 -23 30 -31 0 -13 -8 -14 -40 -9 -23
4 -55 14 -73 23 l-32 16 25 7 c40 11 59 10 90 -6z"/>
<path d="M1368 2115 c3 -20 7 -23 18 -14 11 9 18 8 31 -2 13 -11 13 -8 -2 13
-26 36 -54 37 -47 3z"/>
<path d="M1634 2075 c-14 -21 -97 -288 -91 -290 1 0 10 -6 19 -14 15 -11 22 2
67 145 28 87 51 164 51 171 0 22 -29 14 -46 -12z"/>
<path d="M1700 2076 c0 -27 -84 -296 -106 -338 -16 -31 -13 -34 15 -16 27 16
67 -3 89 -42 17 -30 36 -42 26 -16 -4 11 0 13 15 9 12 -3 21 -1 21 6 0 6 -13
11 -30 11 -31 0 -39 17 -18 38 17 17 64 15 82 -4 20 -20 20 -68 0 -88 -21 -21
-71 -20 -89 2 -7 9 -22 27 -32 39 -10 12 -28 24 -41 28 -19 5 -25 1 -37 -29
-8 -19 -15 -40 -15 -45 0 -5 28 -18 63 -30 90 -29 279 -82 281 -79 1 2 24 77
51 168 26 91 50 171 52 178 4 8 -5 12 -23 12 -31 0 -111 22 -143 40 -24 12
-27 48 -7 75 14 19 16 19 83 2 37 -10 80 -27 96 -38 l27 -20 0 24 c0 14 -6 29
-13 35 -7 6 -70 31 -141 56 -98 35 -133 43 -147 35 -13 -6 -25 -6 -39 1 -17 9
-20 8 -20 -14z m141 -38 c4 -7 1 -17 -7 -22 -8 -6 -17 -28 -21 -49 -9 -58 25
-88 130 -111 23 -5 27 -12 27 -39 0 -17 -11 -63 -25 -102 -13 -38 -25 -77 -25
-86 0 -9 -8 -26 -17 -38 -16 -19 -22 -20 -55 -11 -42 12 -44 16 -23 44 24 32
19 87 -11 120 -26 27 -29 28 -96 21 l-69 -6 5 33 c3 18 15 60 26 93 12 33 23
69 26 80 8 43 28 77 48 86 26 10 77 3 87 -13z"/>
<path d="M1361 2006 c-7 -8 -23 -17 -38 -21 -14 -3 -23 -8 -21 -10 9 -9 78 19
78 32 0 17 -5 16 -19 -1z"/>
<path d="M2081 1980 c0 -14 -7 -34 -15 -45 -12 -18 -29 -95 -21 -95 8 0 46
131 42 147 -3 12 -5 10 -6 -7z"/>
<path d="M1866 1963 c-8 -21 1 -27 81 -48 45 -12 68 -14 75 -7 20 20 0 39 -59
55 -74 21 -89 21 -97 0z"/>
<path d="M1291 1937 c-8 -11 -6 -16 13 -25 19 -9 27 -8 37 4 14 17 12 19 -17
28 -13 4 -26 1 -33 -7z"/>
<path d="M1250 1863 c0 -37 7 -61 30 -96 28 -44 48 -63 37 -34 -3 7 1 24 9 38
19 35 17 42 -12 35 -25 -7 -54 7 -54 25 0 4 10 9 22 11 40 5 33 49 -9 62 -22
7 -23 5 -23 -41z"/>
<path d="M2219 1814 c-11 -22 -12 -31 -3 -27 6 2 20 -6 29 -19 14 -19 16 -20
10 -3 -4 11 -10 34 -14 51 l-6 31 -16 -33z"/>
<path d="M1370 1790 c0 -7 -7 -22 -17 -32 -15 -17 -15 -18 9 -18 32 0 45 28
23 49 -12 12 -15 13 -15 1z"/>
<path d="M1438 1749 c-16 -28 -16 -29 3 -29 23 0 34 22 22 44 -7 12 -11 9 -25
-15z"/>
<path d="M2013 1747 c-6 -20 -7 -37 -3 -37 4 0 17 -15 28 -34 12 -20 33 -38
53 -45 27 -9 31 -9 21 1 -18 18 -15 26 11 31 16 3 14 5 -9 6 -45 2 -75 30 -83
76 l-6 40 -12 -38z"/>
<path d="M1510 1742 c0 -10 -5 -23 -11 -29 -15 -15 -3 -33 20 -33 20 0 47 52
36 69 -11 18 -45 13 -45 -7z"/>
<path d="M1746 1711 c12 -5 25 -14 28 -19 9 -14 -3 -40 -20 -45 -10 -3 -9 -4
2 -3 47 4 41 69 -7 73 -23 3 -23 2 -3 -6z"/>
<path d="M1360 1696 c0 -3 25 -12 54 -20 30 -9 58 -21 61 -26 3 -6 11 -10 17
-10 23 0 -24 37 -61 48 -39 12 -71 15 -71 8z"/>
<path d="M2170 1670 c-24 -8 -24 -8 5 -8 17 0 41 4 55 8 24 8 24 8 -5 8 -16 0
-41 -4 -55 -8z"/>
<path d="M1286 1631 c-9 -24 -15 -46 -12 -48 7 -7 37 68 33 81 -2 5 -11 -10
-21 -33z"/>
<path d="M1343 1625 c10 -66 48 -134 127 -222 38 -43 77 -86 85 -95 20 -24 44
-23 144 8 109 33 152 55 207 106 39 36 60 69 34 53 -33 -21 -389 76 -457 124
-24 17 -49 31 -56 31 -7 0 -27 9 -45 20 -18 11 -35 20 -39 20 -3 0 -3 -20 0
-45z m111 -50 c38 -26 150 -75 171 -75 6 0 40 -9 74 -21 35 -11 79 -22 98 -25
19 -2 39 -7 44 -9 31 -20 -67 -75 -182 -102 l-70 -17 -70 74 c-67 72 -129 162
-129 188 0 19 24 14 64 -13z"/>
<path d="M2010 1670 c0 -3 -13 -43 -29 -90 -16 -47 -28 -87 -26 -89 9 -9 23
12 29 43 4 19 18 51 32 71 23 34 24 39 10 54 -9 8 -16 13 -16 11z"/>
<path d="M2253 1659 c-6 -6 -32 -11 -57 -11 -49 1 -64 -15 -18 -20 16 -2 27
-9 27 -18 0 -17 -53 -20 -94 -6 -21 7 -23 6 -16 -10 4 -11 12 -50 17 -89 4
-38 11 -76 13 -83 7 -19 92 -54 123 -50 39 4 52 64 42 187 -8 96 -17 120 -37
100z m5 -164 c-4 -72 -18 -92 -56 -79 -32 11 -52 47 -52 94 0 32 4 37 34 48
19 7 40 20 47 28 11 14 14 13 22 -8 4 -12 7 -50 5 -83z"/>
<path d="M1540 1625 c-8 -9 1 -17 37 -33 55 -23 133 -45 139 -39 3 2 -23 12
-57 22 -34 9 -72 27 -85 40 -18 18 -25 20 -34 10z"/>
<path d="M1309 1610 c-7 -49 79 -184 154 -241 l42 -32 -51 54 c-69 73 -94 111
-120 183 -17 49 -23 56 -25 36z"/>
<path d="M2016 1568 c-9 -24 -21 -65 -26 -93 -6 -27 -17 -59 -24 -70 -14 -21
-26 -95 -16 -95 25 0 40 35 54 125 9 55 22 115 27 133 16 50 4 50 -15 0z"/>
<path d="M1237 1450 c-22 -55 -41 -117 -44 -138 -5 -34 -1 -42 28 -67 47 -39
134 -76 195 -82 l51 -6 21 61 20 61 -25 16 c-79 52 -193 188 -193 231 0 45
-15 24 -53 -76z m62 -23 c6 -8 8 -16 5 -20 -3 -3 4 -8 15 -12 11 -3 23 -15 26
-26 4 -10 9 -19 13 -19 4 0 29 -20 57 -44 46 -41 49 -47 39 -73 -9 -25 -15
-28 -51 -27 -49 1 -149 47 -164 76 -13 23 -6 65 18 120 18 41 25 45 42 25z"/>
<path d="M2110 1384 c0 -18 36 -36 63 -32 19 2 15 6 -20 24 -32 15 -43 18 -43
8z"/>
<path d="M1860 1344 c-50 -31 -106 -52 -227 -84 -31 -8 -47 -19 -58 -40 -22
-42 -18 -46 11 -11 20 24 46 37 112 57 105 32 183 67 207 94 23 26 21 25 -45
-16z"/>
<path d="M1439 1357 c19 -24 71 -61 71 -50 0 4 -19 21 -43 38 -23 16 -36 21
-28 12z"/>
<path d="M1157 1319 l-16 -40 48 -48 c31 -30 66 -54 97 -65 67 -23 80 -19 16
5 -29 12 -71 38 -94 60 -38 36 -40 41 -36 84 3 25 5 45 3 45 -1 0 -9 -18 -18
-41z"/>
<path d="M1899 1334 c-20 -24 -75 -49 -174 -79 -96 -29 -145 -63 -145 -101 0
-17 13 -27 62 -48 92 -40 133 -43 203 -13 l60 25 10 116 c6 64 7 116 4 116 -4
0 -12 -7 -20 -16z m-23 -128 c-9 -66 -27 -85 -91 -93 -65 -8 -157 23 -153 51
2 13 19 26 48 37 66 26 194 66 199 63 2 -2 0 -28 -3 -58z"/>
<path d="M2250 1317 c-38 -17 -53 -18 -92 -10 -36 7 -48 7 -48 -3 0 -21 65
-44 119 -41 49 2 52 3 61 36 5 19 8 36 7 36 -1 1 -22 -7 -47 -18z"/>
<path d="M1541 1267 c14 -31 -29 -149 -114 -310 -35 -67 -66 -131 -70 -142 -7
-20 -7 -20 9 0 28 36 141 268 170 350 15 44 32 82 36 83 15 7 8 19 -17 30 -23
11 -24 10 -14 -11z"/>
<path d="M2050 1239 c-10 -22 -10 -33 -1 -42 8 -8 11 -4 11 19 0 17 5 35 12
42 8 8 8 12 1 12 -6 0 -16 -14 -23 -31z"/>
<path d="M1506 1209 c-18 -54 -14 -82 4 -33 15 37 24 84 17 84 -2 0 -12 -23
-21 -51z"/>
<path d="M1112 1136 c-17 -57 -29 -111 -26 -120 10 -26 113 -95 153 -102 20
-3 41 -13 48 -21 19 -25 78 38 123 133 22 45 40 85 40 88 0 3 -20 6 -44 6 -75
0 -172 36 -217 81 -21 21 -40 39 -41 39 -2 0 -18 -47 -36 -104z m123 -5 c34
-16 78 -32 97 -36 62 -12 66 -19 38 -71 -41 -78 -58 -95 -88 -88 -47 12 -136
61 -150 83 -12 21 -10 34 23 129 6 17 10 16 80 -17z"/>
<path d="M2116 1186 l2 -41 71 -3 71 -3 0 38 0 38 -45 -3 c-25 -2 -58 0 -73 6
-28 10 -28 10 -26 -32z"/>
<path d="M2086 1175 c-7 -38 -2 -55 17 -55 8 0 8 3 0 11 -6 6 -9 26 -6 45 7
45 -3 44 -11 -1z"/>
<path d="M1074 1114 c-14 -49 -37 -102 -50 -117 -13 -16 -24 -34 -24 -40 0 -7
11 1 24 18 l24 29 36 -32 c50 -44 59 -41 13 4 -20 20 -37 42 -37 48 0 6 12 47
26 90 14 43 23 80 20 83 -3 3 -17 -35 -32 -83z"/>
<path d="M1441 1045 c-85 -192 -148 -222 -313 -151 -45 19 -85 33 -90 30 -15
-10 -8 -31 19 -59 48 -47 101 -68 175 -69 36 -1 70 -4 74 -8 13 -13 24 -9 24
10 0 9 23 58 51 107 61 108 111 215 100 215 -4 0 -22 -34 -40 -75z"/>
<path d="M1886 1065 c-18 -48 -162 -58 -243 -16 -47 23 -63 26 -63 10 0 -5 5
-7 10 -4 17 11 28 -36 44 -194 9 -83 16 -153 16 -156 0 -11 107 -4 171 12 l69
16 0 38 c0 21 -4 40 -9 43 -5 3 -28 -1 -51 -9 -55 -19 -124 -19 -140 0 -10 12
-8 16 15 25 14 5 38 10 53 10 15 0 46 9 69 19 47 22 56 43 68 159 6 61 3 77
-9 47z m-117 -76 c87 -1 86 0 75 -58 -6 -27 -13 -33 -63 -47 -31 -9 -66 -20
-78 -25 -28 -10 -30 -7 -37 64 -7 58 -2 82 14 72 5 -3 45 -6 89 -6z"/>
<path d="M1036 973 c-12 -12 -6 -23 12 -23 10 0 28 -7 40 -16 13 -9 25 -14 28
-11 2 2 -13 16 -35 30 -21 14 -42 23 -45 20z"/>
<path d="M1001 903 c-2 -41 94 -124 141 -123 7 0 -5 9 -27 19 -45 21 -89 64
-104 101 -9 23 -10 24 -10 3z"/>
<path d="M1891 882 c-1 -7 -16 -21 -33 -33 l-33 -20 29 7 c22 5 32 3 43 -11
13 -18 13 -18 12 1 -1 24 -17 73 -18 56z"/>
<path d="M937 793 c-39 -89 -90 -263 -93 -318 l-3 -50 11 45 c5 25 14 61 19
81 5 20 19 49 31 64 17 22 26 26 52 21 l31 -6 -34 21 c-31 18 -33 24 -28 58 2
21 16 61 29 89 14 29 22 52 18 52 -4 0 -19 -26 -33 -57z"/>
<path d="M967 780 c-15 -38 -27 -77 -27 -85 0 -21 67 -50 162 -69 120 -25 119
-25 156 47 18 34 32 65 32 70 0 4 -29 7 -65 7 -80 0 -165 30 -199 71 -14 16
-26 29 -28 29 -2 0 -16 -31 -31 -70z m188 -59 c32 -6 60 -11 63 -11 11 0 -5
-44 -20 -53 -19 -13 -133 7 -185 31 -28 13 -31 19 -26 46 9 44 22 48 68 21 22
-13 67 -28 100 -34z"/>
<path d="M1602 725 c0 -16 3 -43 7 -60 6 -27 7 -28 13 -8 3 12 0 39 -8 60 -13
37 -13 37 -12 8z"/>
<path d="M1861 682 c-16 -11 -54 -18 -118 -20 l-95 -4 6 -30 c3 -17 6 -39 6
-48 0 -15 14 -21 70 -30 62 -10 76 -10 120 6 l51 18 -7 61 c-4 33 -7 61 -8 61
0 1 -12 -5 -25 -14z m-11 -65 c0 -24 -24 -37 -66 -37 -51 0 -74 8 -74 25 0 9
15 15 38 18 81 8 102 7 102 -6z"/>
<path d="M921 601 c-20 -20 -41 -79 -41 -116 0 -11 -7 -33 -15 -49 -14 -27
-14 -29 11 -48 35 -28 17 -45 -26 -23 -30 16 -38 16 -124 0 -126 -23 -149 -35
-182 -91 -32 -55 -41 -120 -15 -108 9 4 41 9 71 11 309 19 431 34 464 58 13
10 25 43 37 100 10 47 34 117 54 156 19 38 35 72 35 75 0 2 -15 4 -33 4 -29 0
-157 29 -200 46 -9 3 -24 -3 -36 -15z m124 -47 c39 -9 73 -19 78 -23 4 -4 -4
-31 -18 -60 -15 -29 -31 -79 -36 -110 -18 -103 -20 -105 -108 -116 -30 -4 -63
-9 -75 -11 -12 -2 -73 -7 -136 -10 -63 -3 -134 -7 -157 -8 l-42 -2 20 38 c27
52 64 70 178 83 23 3 47 8 52 11 5 3 9 1 9 -4 0 -5 17 -12 37 -15 27 -5 42 -2
55 10 19 17 24 48 9 57 -9 6 -9 16 3 91 9 57 30 96 49 90 6 -2 44 -11 82 -21z"/>
<path d="M1850 534 c-24 -14 -76 -14 -165 1 -23 3 -21 1 10 -9 54 -19 129 -19
165 -1 17 9 30 18 30 20 0 8 -13 4 -40 -11z"/>
<path d="M1870 508 c-39 -20 -107 -23 -159 -8 -19 5 -36 9 -37 7 -1 -1 3 -47
10 -101 15 -115 17 -118 141 -166 92 -35 171 -50 268 -50 l67 0 0 35 c0 45
-24 69 -106 106 -76 34 -111 36 -159 8 -29 -17 -38 -19 -50 -9 -14 11 -14 15
1 31 9 10 29 21 45 24 28 6 29 9 28 58 -1 78 -7 86 -49 65z m-24 -105 c-42
-40 -47 -75 -13 -98 22 -14 28 -14 68 1 24 9 55 16 68 15 42 -2 151 -61 151
-81 0 -41 -296 18 -363 72 -24 20 -29 32 -32 85 l-4 61 71 1 c39 0 74 3 77 7
3 3 8 -2 10 -12 2 -10 -12 -31 -33 -51z"/>
<path d="M1637 430 c6 -67 22 -128 22 -85 0 11 -6 49 -14 85 l-14 65 6 -65z"/>
<path d="M1940 423 c0 -32 4 -43 15 -43 18 0 18 -4 0 45 l-14 40 -1 -42z"/>
<path d="M1652 275 c2 -12 40 -32 116 -62 63 -24 118 -43 123 -41 6 2 -38 21
-98 43 -59 22 -116 48 -126 58 -17 17 -18 17 -15 2z"/>
<path d="M1935 160 c33 -11 143 -16 152 -6 4 3 -21 6 -54 6 -33 0 -76 2 -94 5
l-34 5 30 -10z"/>
</g>
</svg>
